<?xml version="1.0" encoding="UTF-8"?>
<!DOCTYPE svg PUBLIC "-//W3C//DTD SVG 1.1//EN" "http://www.w3.org/Graphics/SVG/1.1/DTD/svg11.dtd">
<svg version="1.2" xmlns="http://www.w3.org/2000/svg" xmlns:xlink="http://www.w3.org/1999/xlink" x="0" y="0" width="508" height="202" viewBox="0 0 508 202">
<style type="text/css"><![CDATA[
text { font:12px Dialog; }
]]></style>
<rect x="-1105" y="-1067" width="2956" height="2344" style="fill:rgb(255,255,255);stroke:none" />
<clipPath id="clip1"><path d="M15,15 L493,15 L493,187 L15,187 Z M26,67 C21.5817184,67 18,70.5817184 18,75 L18,119 C18,123.4182816 21.5817184,127 26,127 L243,127 C247.4182739,127 251,123.4182816 251,119 L251,75 C251,70.5817184 247.4182739,67 243,67 Z M26,67" /></clipPath>
<path d="M218.9736938,67 C235.8684235,49 261.2105103,40 295,40" style="fill:none;stroke:rgb(85,142,213)" clip-path="url(#clip1)" />
<clipPath id="clip2"><path d="M15,15 L493,15 L493,187 L15,187 Z M26,67 C21.5817184,67 18,70.5817184 18,75 L18,119 C18,123.4182816 21.5817184,127 26,127 L243,127 C247.4182739,127 251,123.4182816 251,119 L251,75 C251,70.5817184 247.4182739,67 243,67 Z M26,67" /></clipPath>
<path d="M203.2857056,127 C223.6666565,153.6666718 254.2380981,167 295,167" style="fill:none;stroke:rgb(85,142,213)" clip-path="url(#clip2)" />
<clipPath id="clip3"><path d="M14,63 L256,63 L256,132 L14,132 L14,63 Z" /></clipPath>
<path d="M26,67 C21.5817184,67 18,70.5817184 18,75 L18,119 C18,123.4182816 21.5817184,127 26,127 L243,127 C247.4182739,127 251,123.4182816 251,119 L251,75 C251,70.5817184 247.4182739,67 243,67 Z M26,67" style="fill:rgb(220,230,242);stroke:none" clip-path="url(#clip3)" />
<clipPath id="clip4"><path d="M14,63 L256,63 L256,132 L14,132 L14,63 Z" /></clipPath>
<path d="M26,67 C21.5817184,67 18,70.5817184 18,75 L18,119 C18,123.4182816 21.5817184,127 26,127 L243,127 C247.4182739,127 251,123.4182816 251,119 L251,75 C251,70.5817184 247.4182739,67 243,67 Z M26,67" style="fill:none;stroke:rgb(85,142,213);stroke-width:5" clip-path="url(#clip4)" />
<clipPath id="clip5"><path d="M50,83 L220,83 L220,112 L50,112 L50,83 Z" /></clipPath>
<path d="M60.4379883,91.4091797 C59.41259,91.4091797 58.6186523,91.7944336 58.0561523,92.5649414 C57.4936523,93.3354492 57.2124023,94.4091721 57.2124023,95.7861328 C57.2124023,98.6513824 58.28759,100.0839844 60.4379883,100.0839844 C61.3403397,100.0839844 62.4330978,99.8583984 63.7163086,99.4072266 L63.7163086,101.6923828 C62.6616135,102.1318359 61.4838943,102.3515625 60.1831055,102.3515625 C58.3139572,102.3515625 56.884285,101.7846756 55.894043,100.6508789 C54.903801,99.5170822 54.4086914,97.8896561 54.4086914,95.7685547 C54.4086914,94.4326096 54.6518555,93.2622147 55.1381836,92.2573242 C55.6245117,91.2524338 56.3232346,90.4819336 57.234375,89.9458008 C58.1455154,89.409668 59.2133713,89.1416016 60.4379883,89.1416016 C61.6860428,89.1416016 62.9399338,89.4433594 64.199707,90.046875 L63.3208008,92.2617188 C62.840332,92.0332031 62.3569336,91.8339844 61.8706055,91.6640625 C61.3842773,91.4941406 60.9067383,91.4091797 60.4379883,91.4091797 Z M71.6352539,102.3515625 C70.4809494,102.3515625 69.5756836,101.9326248 68.9194336,101.0947266 L68.7788086,101.0947266 C68.8725586,101.9150467 68.9194336,102.3896484 68.9194336,102.5185547 L68.9194336,106.5 L66.2387695,106.5 L66.2387695,92.3496094 L68.418457,92.3496094 L68.7963867,93.6240234 L68.9194336,93.6240234 C69.5463867,92.6513596 70.47509,92.1650391 71.7055664,92.1650391 C72.8657303,92.1650391 73.7739258,92.6132736 74.4301758,93.5097656 C75.0864258,94.4062576 75.4145508,95.6513596 75.4145508,97.2451172 C75.4145508,98.2939529 75.2607422,99.2050781 74.953125,99.9785156 C74.6455078,100.7519531 74.2075195,101.3408203 73.6391602,101.7451172 C73.0708008,102.1494141 72.402832,102.3515625 71.6352539,102.3515625 Z M70.8442383,94.3095703 C70.1821289,94.3095703 69.6987305,94.5131836 69.394043,94.9204102 C69.0893555,95.3276367 68.9311523,95.9999924 68.9194336,96.9375 L68.9194336,97.2275391 C68.9194336,98.2822342 69.0761719,99.0380859 69.3896484,99.4951172 C69.703125,99.9521484 70.199707,100.1806641 70.8793945,100.1806641 C72.080574,100.1806641 72.6811523,99.1904373 72.6811523,97.2099609 C72.6811523,96.2431564 72.5332031,95.5180664 72.2373047,95.034668 C71.9414063,94.5512695 71.4770508,94.3095703 70.8442383,94.3095703 Z M86.699707,102.1757813 L84.019043,102.1757813 L84.019043,96.4365234 C84.019043,95.0185471 83.4916992,94.3095703 82.4370117,94.3095703 C81.6870117,94.3095703 81.1450195,94.5644531 80.8110352,95.0742188 C80.4770508,95.5839844 80.3100586,96.4101486 80.3100586,97.5527344 L80.3100586,102.1757813 L77.6293945,102.1757813 L77.6293945,88.5 L80.3100586,88.5 L80.3100586,91.2861328 C80.3100586,91.5029297 80.2895508,92.0126953 80.2485352,92.8154297 L80.1870117,93.6064453 L80.3276367,93.6064453 C80.925293,92.6455002 81.8745041,92.1650391 83.175293,92.1650391 C84.3295975,92.1650391 85.2055664,92.4755859 85.8032227,93.0966797 C86.4008789,93.7177734 86.699707,94.6083908 86.699707,95.7685547 Z M102.2124023,102.1757813 L101.2807617,99.1171875 L96.5961914,99.1171875 L95.6645508,102.1757813 L92.7290039,102.1757813 L97.2641602,89.2734375 L100.5952148,89.2734375 L105.1479492,102.1757813 Z M100.6303711,96.8320313 C99.769043,94.0605316 99.2841797,92.4931641 99.1757813,92.1298828 C99.0673828,91.7666016 98.9897461,91.4794922 98.9428711,91.2685547 C98.7495117,92.0185547 98.1958008,93.8730316 97.2817383,96.8320313 Z M106.4399414,89.8095703 C106.4399414,88.9365158 106.9262619,88.5 107.8989258,88.5 C108.8715897,88.5 109.3579102,88.9365158 109.3579102,89.8095703 C109.3579102,90.2255859 109.2363281,90.5493164 108.9931641,90.7807617 C108.75,91.012207 108.3852539,91.1279297 107.8989258,91.1279297 C106.9262619,91.1279297 106.4399414,90.6884842 106.4399414,89.8095703 Z M109.2348633,102.1757813 L106.5541992,102.1757813 L106.5541992,92.3496094 L109.2348633,92.3496094 Z M117.5317383,92.1650391 C117.8950195,92.1650391 118.1967773,92.1914063 118.4370117,92.2441406 L118.2348633,94.7578125 C118.0180664,94.6992188 117.7543945,94.6699219 117.4438477,94.6699219 C116.5883789,94.6699219 115.921875,94.8896484 115.4443359,95.3291016 C114.9667969,95.7685547 114.7280273,96.3837814 114.7280273,97.1748047 L114.7280273,102.1757813 L112.0473633,102.1757813 L112.0473633,92.3496094 L114.0776367,92.3496094 L114.4731445,94.0019531 L114.6049805,94.0019531 C114.909668,93.4511719 115.3212891,93.0073242 115.8398438,92.6704102 C116.3583984,92.3334961 116.9223633,92.1650391 117.5317383,92.1650391 Z M130.0649414,102.1757813 L127.340332,102.1757813 L127.340332,91.59375 L123.8510742,91.59375 L123.8510742,89.3261719 L133.5541992,89.3261719 L133.5541992,91.59375 L130.0649414,91.59375 Z M139.9086914,92.1650391 C140.2719727,92.1650391 140.5737305,92.1914063 140.8139648,92.2441406 L140.6118164,94.7578125 C140.3950195,94.6992188 140.1313477,94.6699219 139.8208008,94.6699219 C138.965332,94.6699219 138.2988281,94.8896484 137.8212891,95.3291016 C137.34375,95.7685547 137.1049805,96.3837814 137.1049805,97.1748047 L137.1049805,102.1757813 L134.4243164,102.1757813 L134.4243164,92.3496094 L136.4545898,92.3496094 L136.8500977,94.0019531 L136.9819336,94.0019531 C137.2866211,93.4511719 137.6982422,93.0073242 138.2167969,92.6704102 C138.7353516,92.3334961 139.2993164,92.1650391 139.9086914,92.1650391 Z M148.4780273,102.1757813 L147.9594727,100.8398438 L147.8891602,100.8398438 C147.4379883,101.4082031 146.9736328,101.8022461 146.4960938,102.0219727 C146.0185547,102.2416992 145.3959961,102.3515625 144.628418,102.3515625 C143.6850586,102.3515625 142.9423828,102.0820313 142.4003906,101.5429688 C141.8583984,101.0039063 141.5874023,100.2363358 141.5874023,99.2402344 C141.5874023,98.197258 141.9521484,97.4282227 142.6816406,96.9331055 C143.4111328,96.4379883 144.5112305,96.1640625 145.9819336,96.1113281 L147.6870117,96.0585938 L147.6870117,95.6279297 C147.6870117,94.6318283 147.1772461,94.1337891 146.1577148,94.1337891 C145.3725586,94.1337891 144.449707,94.3710938 143.3891602,94.8457031 L142.5014648,93.0351563 C143.6323242,92.4433594 144.8862305,92.1474609 146.2631836,92.1474609 C147.581543,92.1474609 148.5922852,92.4345703 149.2954102,93.0087891 C149.9985352,93.5830078 150.3500977,94.4560471 150.3500977,95.6279297 L150.3500977,102.1757813 Z M147.6870117,97.6230469 L146.6499023,97.6582031 C145.8706055,97.6816406 145.2905273,97.8222656 144.909668,98.0800781 C144.5288086,98.3378906 144.3383789,98.7304688 144.3383789,99.2578125 C144.3383789,100.0136719 144.7719727,100.3916016 145.6391602,100.3916016 C146.2602539,100.3916016 146.7568359,100.2128906 147.1289063,99.8554688 C147.5009766,99.4980469 147.6870117,99.0234375 147.6870117,98.4316406 Z M155.4477539,102.1757813 L151.7036133,92.3496094 L154.5073242,92.3496094 L156.4057617,97.9482422 C156.6166992,98.6572266 156.7485352,99.328125 156.8012695,99.9609375 L156.8540039,99.9609375 C156.8833008,99.3984375 157.0151367,98.7275467 157.2495117,97.9482422 L159.1391602,92.3496094 L161.9428711,92.3496094 L158.1987305,102.1757813 Z M167.418457,94.0722656 C166.8500977,94.0722656 166.4047852,94.2524414 166.0825195,94.612793 C165.7602539,94.9731445 165.5756836,95.484375 165.5288086,96.1464844 L169.2905273,96.1464844 C169.2788086,95.484375 169.105957,94.9731445 168.7719727,94.612793 C168.4379883,94.2524414 167.9868164,94.0722656 167.418457,94.0722656 Z M167.7963867,102.3515625 C166.2143555,102.3515625 164.9780273,101.9150467 164.0874023,101.0419922 C163.1967773,100.1689377 162.7514648,98.9326248 162.7514648,97.3330078 C162.7514648,95.6865158 163.1630859,94.4135818 163.9863281,93.5141602 C164.8095703,92.6147385 165.9477539,92.1650391 167.4008789,92.1650391 C168.7895508,92.1650391 169.8706055,92.5605469 170.644043,93.3515625 C171.4174805,94.1425858 171.8041992,95.2353439 171.8041992,96.6298828 L171.8041992,97.9306641 L165.4672852,97.9306641 C165.496582,98.6923828 165.722168,99.2871094 166.144043,99.7148438 C166.565918,100.1425781 167.1577148,100.3564453 167.9194336,100.3564453 C168.5112305,100.3564453 169.0708008,100.2949219 169.5981445,100.171875 C170.1254883,100.0488281 170.6762695,99.8525391 171.2504883,99.5830078 L171.2504883,101.6572266 C170.7817383,101.8916016 170.2807617,102.065918 169.7475586,102.1801758 C169.2143555,102.2944336 168.5639648,102.3515625 167.7963867,102.3515625 Z M176.6645508,102.1757813 L173.9838867,102.1757813 L173.9838867,88.5 L176.6645508,88.5 Z M190.3930664,102.1757813 L189.8745117,100.8398438 L189.8041992,100.8398438 C189.3530273,101.4082031 188.8886719,101.8022461 188.4111328,102.0219727 C187.9335938,102.2416992 187.3110352,102.3515625 186.543457,102.3515625 C185.6000977,102.3515625 184.8574219,102.0820313 184.3154297,101.5429688 C183.7734375,101.0039063 183.5024414,100.2363358 183.5024414,99.2402344 C183.5024414,98.197258 183.8671875,97.4282227 184.5966797,96.9331055 C185.3261719,96.4379883 186.4262695,96.1640625 187.8969727,96.1113281 L189.6020508,96.0585938 L189.6020508,95.6279297 C189.6020508,94.6318283 189.0922852,94.1337891 188.0727539,94.1337891 C187.2875977,94.1337891 186.3647461,94.3710938 185.3041992,94.8457031 L184.4165039,93.0351563 C185.5473633,92.4433594 186.8012695,92.1474609 188.1782227,92.1474609 C189.496582,92.1474609 190.5073242,92.4345703 191.2104492,93.0087891 C191.9135742,93.5830078 192.2651367,94.4560471 192.2651367,95.6279297 L192.2651367,102.1757813 Z M189.6020508,97.6230469 L188.5649414,97.6582031 C187.7856445,97.6816406 187.2055664,97.8222656 186.824707,98.0800781 C186.4438477,98.3378906 186.253418,98.7304688 186.253418,99.2578125 C186.253418,100.0136719 186.6870117,100.3916016 187.5541992,100.3916016 C188.175293,100.3916016 188.671875,100.2128906 189.0439453,99.8554688 C189.4160156,99.4980469 189.6020508,99.0234375 189.6020508,98.4316406 Z M200.4213867,102.3515625 C199.2670898,102.3515625 198.3618164,101.9326248 197.7055664,101.0947266 L197.5649414,101.0947266 C197.6586914,101.9150467 197.7055664,102.3896484 197.7055664,102.5185547 L197.7055664,106.5 L195.0249023,106.5 L195.0249023,92.3496094 L197.2045898,92.3496094 L197.5825195,93.6240234 L197.7055664,93.6240234 C198.3325195,92.6513596 199.2612305,92.1650391 200.4916992,92.1650391 C201.6518555,92.1650391 202.5600586,92.6132736 203.2163086,93.5097656 C203.8725586,94.4062576 204.2006836,95.6513596 204.2006836,97.2451172 C204.2006836,98.2939529 204.046875,99.2050781 203.7392578,99.9785156 C203.4316406,100.7519531 202.9936523,101.3408203 202.425293,101.7451172 C201.8569336,102.1494141 201.1889648,102.3515625 200.4213867,102.3515625 Z M199.6303711,94.3095703 C198.9682617,94.3095703 198.4848633,94.5131836 198.1801758,94.9204102 C197.8754883,95.3276367 197.7172852,95.9999924 197.7055664,96.9375 L197.7055664,97.2275391 C197.7055664,98.2822342 197.8623047,99.0380859 198.1757813,99.4951172 C198.4892578,99.9521484 198.9858398,100.1806641 199.6655273,100.1806641 C200.8666992,100.1806641 201.4672852,99.1904373 201.4672852,97.2099609 C201.4672852,96.2431564 201.3193359,95.5180664 201.0234375,95.034668 C200.7275391,94.5512695 200.2631836,94.3095703 199.6303711,94.3095703 Z M211.8120117,102.3515625 C210.6577148,102.3515625 209.7524414,101.9326248 209.0961914,101.0947266 L208.9555664,101.0947266 C209.0493164,101.9150467 209.0961914,102.3896484 209.0961914,102.5185547 L209.0961914,106.5 L206.4155273,106.5 L206.4155273,92.3496094 L208.5952148,92.3496094 L208.9731445,93.6240234 L209.0961914,93.6240234 C209.7231445,92.6513596 210.6518555,92.1650391 211.8823242,92.1650391 C213.0424805,92.1650391 213.9506836,92.6132736 214.6069336,93.5097656 C215.2631836,94.4062576 215.5913086,95.6513596 215.5913086,97.2451172 C215.5913086,98.2939529 215.4375,99.2050781 215.1298828,99.9785156 C214.8222656,100.7519531 214.3842773,101.3408203 213.815918,101.7451172 C213.2475586,102.1494141 212.5795898,102.3515625 211.8120117,102.3515625 Z M211.0209961,94.3095703 C210.3588867,94.3095703 209.8754883,94.5131836 209.5708008,94.9204102 C209.2661133,95.3276367 209.1079102,95.9999924 209.0961914,96.9375 L209.0961914,97.2275391 C209.0961914,98.2822342 209.2529297,99.0380859 209.5664063,99.4951172 C209.8798828,99.9521484 210.3764648,100.1806641 211.0561523,100.1806641 C212.2573242,100.1806641 212.8579102,99.1904373 212.8579102,97.2099609 C212.8579102,96.2431564 212.7099609,95.5180664 212.4140625,95.034668 C212.1181641,94.5512695 211.6538086,94.3095703 211.0209961,94.3095703 Z M216.3999023,102.1757813" style="fill:rgb(55,96,146);stroke:none" clip-path="url(#clip5)" />
<clipPath id="clip6"><path d="M294,15 L486,15 L486,60 L294,60 Z M300,22 C297.2385864,22 295,24.2385712 295,27 L295,53 C295,55.761425 297.2385864,58 300,58 L359,58 C361.7614136,58 364,55.761425 364,53 L364,27 C364,24.2385712 361.7614136,22 359,22 Z M300,22" /></clipPath>
<path d="M377,40 L377,40 L387,40" style="fill:none;stroke:rgb(85,142,213)" clip-path="url(#clip6)" />
<clipPath id="clip7"><path d="M293,14 L487,14 L487,61 L293,61 L293,14 Z" /></clipPath>
<path d="M364,40 L377,40" style="fill:none;stroke:rgb(85,142,213)" clip-path="url(#clip7)" />
<clipPath id="clip8"><path d="M293,20 L367,20 L367,61 L293,61 L293,20 Z" /></clipPath>
<path d="M300,22 C297.2385864,22 295,24.2385712 295,27 L295,53 C295,55.761425 297.2385864,58 300,58 L359,58 C361.7614136,58 364,55.761425 364,53 L364,27 C364,24.2385712 361.7614136,22 359,22 Z M300,22" style="fill:rgb(220,230,242);stroke:none" clip-path="url(#clip8)" />
<clipPath id="clip9"><path d="M293,20 L367,20 L367,61 L293,61 L293,20 Z" /></clipPath>
<path d="M300,22 C297.2385864,22 295,24.2385712 295,27 L295,53 C295,55.761425 297.2385864,58 300,58 L359,58 C361.7614136,58 364,55.761425 364,53 L364,27 C364,24.2385712 361.7614136,22 359,22 Z M300,22" style="fill:none;stroke:rgb(85,142,213);stroke-width:2" clip-path="url(#clip9)" />
<clipPath id="clip10"><path d="M307,29 L353,29 L353,52 L307,52 L307,29 Z" /></clipPath>
<path d="M315.9072266,41.442627 C315.9072266,42.2593613 315.6110229,42.8962364 315.0185547,43.3532715 C314.4260864,43.8103065 313.6220703,44.0388184 312.6064453,44.0388184 C311.5061646,44.0388184 310.6598511,43.8970566 310.0673828,43.6135254 L310.0673828,42.5725098 C310.4482422,42.7333183 310.8629761,42.8602715 311.3115234,42.9533691 C311.7600708,43.0464668 312.2044067,43.0930176 312.6445313,43.0930176 C313.3639526,43.0930176 313.9055786,42.956543 314.2695313,42.6835938 C314.6334839,42.4106445 314.8154297,42.0308456 314.8154297,41.5441895 C314.8154297,41.2225723 314.7509155,40.9591484 314.6218262,40.7539063 C314.4927368,40.5486641 314.2769165,40.3592949 313.9743652,40.185791 C313.671814,40.0122871 313.2116089,39.8155136 312.59375,39.595459 C311.7304688,39.2865372 311.1137085,38.9204941 310.7434082,38.4973145 C310.3731079,38.0741348 310.1879883,37.5218964 310.1879883,36.8405762 C310.1879883,36.1254044 310.4566956,35.5562363 310.9941406,35.1330566 C311.5315857,34.709877 312.2424927,34.498291 313.1269531,34.498291 C314.0494995,34.498291 314.8979492,34.6675606 315.6723633,35.0061035 L315.3359375,35.9455566 C314.5699768,35.6239395 313.8251953,35.4631348 313.1015625,35.4631348 C312.5302734,35.4631348 312.0838013,35.5858536 311.762207,35.8312988 C311.4406128,36.0767441 311.2797852,36.4173965 311.2797852,36.8532715 C311.2797852,37.1748886 311.3390503,37.4383125 311.4575195,37.6435547 C311.5759888,37.8487968 311.7759399,38.0371094 312.057373,38.2084961 C312.3388062,38.3798828 312.7693481,38.569252 313.3491211,38.7766113 C314.3224487,39.1236191 314.9921265,39.4960098 315.3581543,39.8937988 C315.7241821,40.2915878 315.9072266,40.8078575 315.9072266,41.442627 Z M323.5166016,40.427002 C323.5166016,41.5611229 323.230957,42.4466095 322.659668,43.0834961 C322.0883789,43.7203827 321.2991638,44.0388184 320.2919922,44.0388184 C319.6402893,44.0388184 319.0774536,43.8928223 318.6035156,43.6008301 L318.0703125,44.3435059 L317.3466797,43.8483887 L317.9433594,43.0168457 C317.3974609,42.3736115 317.1245117,41.5103416 317.1245117,40.427002 C317.1245117,39.292881 317.40802,38.4095078 317.9750977,37.7768555 C318.5421753,37.1442032 319.3292542,36.8278809 320.3364258,36.8278809 C320.9881287,36.8278809 321.5593872,36.9886856 322.050293,37.3103027 L322.5834961,36.5549316 L323.3261719,37.0373535 L322.7104492,37.8815918 C323.2478943,38.524826 323.5166016,39.3732872 323.5166016,40.427002 Z M318.2163086,40.427002 C318.2163086,41.1506386 318.3284302,41.7282677 318.5527344,42.1599121 L321.5043945,38.0593262 C321.1870117,37.835041 320.7871094,37.7229004 320.3046875,37.7229004 C319.6148987,37.7229004 319.0944214,37.9492989 318.7431641,38.4020996 C318.3919067,38.8549004 318.2163086,39.5298615 318.2163086,40.427002 Z M322.4248047,40.427002 C322.4248047,39.7329865 322.3168945,39.1744003 322.1010742,38.7512207 L319.1494141,42.8327637 C319.4498901,43.048584 319.8391724,43.1564941 320.3173828,43.1564941 C321.0071716,43.1564941 321.5308228,42.9248085 321.8884277,42.4614258 C322.2460327,41.9980431 322.4248047,41.319912 322.4248047,40.427002 Z M331.2055664,36.954834 L331.2055664,37.6213379 L329.9169922,37.7736816 C330.0354614,37.9217949 330.1412964,38.1153946 330.234375,38.3544922 C330.3274536,38.5935898 330.3740234,38.8633614 330.3740234,39.1638184 C330.3740234,39.8451385 330.1412964,40.3889122 329.6757813,40.795166 C329.2102661,41.2014198 328.5712891,41.404541 327.7587891,41.404541 C327.5514526,41.404541 327.3567505,41.3876152 327.1748047,41.3537598 C326.7262573,41.5907402 326.5019531,41.8890762 326.5019531,42.2487793 C326.5019531,42.439209 326.5802612,42.5799141 326.7368164,42.6708984 C326.8933716,42.7618828 327.1621094,42.807373 327.5429688,42.807373 L328.7744141,42.807373 C329.5276794,42.807373 330.1063843,42.9660645 330.510498,43.2834473 C330.9146118,43.6008301 331.1166992,44.0620918 331.1166992,44.6672363 C331.1166992,45.4374237 330.8078003,46.0245743 330.1899414,46.4287109 C329.5720825,46.8328476 328.6707458,47.0349121 327.4858398,47.0349121 C326.5759888,47.0349121 325.8745728,46.8656425 325.3815918,46.5270996 C324.8886108,46.1885567 324.6420898,45.7103691 324.6420898,45.0925293 C324.6420898,44.6693497 324.7775269,44.3033066 325.0483398,43.9943848 C325.3191528,43.685463 325.7000122,43.4759941 326.190918,43.3659668 C326.0131836,43.2855644 325.8640137,43.1607285 325.7434082,42.9914551 C325.6228027,42.8221817 325.5625,42.6254082 325.5625,42.401123 C325.5625,42.1472168 325.630188,41.9250488 325.765625,41.7346191 C325.901062,41.5441895 326.1147461,41.3601074 326.4067383,41.182373 C326.0470581,41.0342598 325.7539673,40.7824707 325.5275879,40.427002 C325.3012085,40.0715332 325.1879883,39.665287 325.1879883,39.208252 C325.1879883,38.4465294 325.4165039,37.8593788 325.8735352,37.4467773 C326.3305664,37.0341759 326.9780273,36.8278809 327.815918,36.8278809 C328.1798706,36.8278809 328.5078125,36.8701973 328.7998047,36.954834 Z M325.6577148,45.079834 C325.6577148,45.4564629 325.8164063,45.7421036 326.1337891,45.9367676 C326.4511719,46.1314316 326.9060669,46.2287598 327.4985352,46.2287598 C328.3829956,46.2287598 329.0378418,46.0965195 329.4631348,45.8320313 C329.8884277,45.567543 330.1010742,45.2089043 330.1010742,44.7561035 C330.1010742,44.3794746 329.9846802,44.1181641 329.7519531,43.972168 C329.5192261,43.8261719 329.0812378,43.7531738 328.4379883,43.7531738 L327.1748047,43.7531738 C326.6965942,43.7531738 326.3242188,43.8674316 326.0576172,44.0959473 C325.7910156,44.3244629 325.6577148,44.6524239 325.6577148,45.079834 Z M326.2290039,39.1828613 C326.2290039,39.6695175 326.3665161,40.0376778 326.6416016,40.2873535 C326.916687,40.5370293 327.2996216,40.6618652 327.7905273,40.6618652 C328.8188477,40.6618652 329.3330078,40.1625214 329.3330078,39.1638184 C329.3330078,38.1185646 328.8125,37.5959473 327.7714844,37.5959473 C327.2763672,37.5959473 326.8955078,37.729248 326.6289063,37.9958496 C326.3623047,38.2624512 326.2290039,38.6581192 326.2290039,39.1828613 Z M338.6474609,37.7736816 L336.8764648,37.7736816 L336.8764648,43.9118652 L335.8227539,43.9118652 L335.8227539,37.7736816 L334.5786133,37.7736816 L334.5786133,37.2976074 L335.8227539,36.916748 L335.8227539,36.529541 C335.8227539,34.8198967 336.5696411,33.9650879 338.0634766,33.9650879 C338.4316406,33.9650879 338.8632813,34.0391426 339.3583984,34.1872559 L339.0854492,35.0314941 C338.6791992,34.9003067 338.3322144,34.8347168 338.0444336,34.8347168 C337.6466675,34.8347168 337.3525391,34.9669571 337.1621094,35.2314453 C336.9716797,35.4959335 336.8764648,35.9201622 336.8764648,36.5041504 L336.8764648,36.954834 L338.6474609,36.954834 Z M340.9707031,43.9118652 L339.9169922,43.9118652 L339.9169922,34.0349121 L340.9707031,34.0349121 Z M342.4072266,36.954834 L343.5371094,36.954834 L345.0605469,40.9221191 C345.3948364,41.8277245 345.6022339,42.4815254 345.6826172,42.8835449 L345.7333984,42.8835449 C345.7883911,42.6677246 345.9037476,42.2985039 346.0793457,41.7758789 C346.2549438,41.2532539 346.8294067,39.6462555 347.8027344,36.954834 L348.9326172,36.954834 L345.9428711,44.876709 C345.6466675,45.6595917 345.3007202,46.215004 344.9050293,46.5429688 C344.5093384,46.8709335 344.0237732,47.0349121 343.4482422,47.0349121 C343.1266479,47.0349121 342.8092651,46.9989433 342.4960938,46.927002 L342.4960938,46.0827637 C342.7288208,46.1335449 342.9890747,46.1589355 343.2768555,46.1589355 C344.0004883,46.1589355 344.5167847,45.7526894 344.8256836,44.9401855 L345.2128906,43.9499512 Z M348.9453125,43.9118652" style="fill:rgb(23,55,94);stroke:none" clip-path="url(#clip10)" />
<clipPath id="clip11"><path d="M365,34 L378,34 L378,47 L365,47 L365,34 Z" /></clipPath>
<path d="M375.5,40 C375.5,37.5147171 373.4852905,35.5 371,35.5 C368.5147095,35.5 366.5,37.5147171 366.5,40 C366.5,42.4852829 368.5147095,44.5 371,44.5 C373.4852905,44.5 375.5,42.4852829 375.5,40 Z M375.5,40" style="fill:rgb(250,250,250);stroke:none" clip-path="url(#clip11)" />
<clipPath id="clip12"><path d="M365,34 L378,34 L378,47 L365,47 L365,34 Z" /></clipPath>
<path d="M375.5,40 C375.5,37.5147171 373.4852905,35.5 371,35.5 C368.5147095,35.5 366.5,37.5147171 366.5,40 C366.5,42.4852829 368.5147095,44.5 371,44.5 C373.4852905,44.5 375.5,42.4852829 375.5,40 Z M375.5,40" style="fill:none;stroke:rgb(85,142,213)" clip-path="url(#clip12)" />
<clipPath id="clip13"><path d="M365,34 L378,34 L378,47 L365,47 L365,34 Z" /></clipPath>
<path d="M369,40 L373,40" style="fill:none;stroke:rgb(150,160,200)" clip-path="url(#clip13)" />
<clipPath id="clip14"><path d="M384,14 L487,14 L487,43 L384,43 L384,14 Z" /></clipPath>
<path d="M387,40 L483,40 Z M387,40" style="fill:none;stroke:rgb(85,142,213);stroke-width:3" clip-path="url(#clip14)" />
<clipPath id="clip15"><path d="M396,19 L475,19 L475,38 L396,38 L396,19 Z" /></clipPath>
<path d="M403.8925781,25.1381836 L404.7861328,25.1381836 L402.2128906,32.2768555 L401.3925781,32.2768555 L398.8339844,25.1381836 L399.7128906,25.1381836 L401.3535156,29.7573242 C401.5423279,30.2879257 401.6920471,30.8038712 401.8027344,31.3051758 C401.9199219,30.777832 402.0729065,30.252121 402.2617188,29.7280273 Z M406.5039063,32.2768555 L405.6933594,32.2768555 L405.6933594,26.925293 L406.5039063,26.925293 Z M405.625,25.4750977 C405.625,25.2895508 405.6705627,25.1536484 405.7617188,25.0673828 C405.8528748,24.9811172 405.9667969,24.9379883 406.1035156,24.9379883 C406.2337341,24.9379883 406.3460388,24.9819336 406.4404297,25.0698242 C406.5348206,25.1577148 406.5820313,25.2928085 406.5820313,25.4750977 C406.5820313,25.6573868 406.5348206,25.7932968 406.4404297,25.8828125 C406.3460388,25.9723282 406.2337341,26.0170898 406.1035156,26.0170898 C405.9667969,26.0170898 405.8528748,25.9723282 405.7617188,25.8828125 C405.6705627,25.7932968 405.625,25.6573868 405.625,25.4750977 Z M412.1455078,30.8168945 C412.1455078,31.3149414 411.9599609,31.6990509 411.5888672,31.9692383 C411.2177734,32.2394257 410.6969299,32.3745117 410.0263672,32.3745117 C409.3167419,32.3745117 408.7633362,32.262207 408.3662109,32.0375977 L408.3662109,31.2856445 C408.6233826,31.4158554 408.8992615,31.5183945 409.1938477,31.5932617 C409.4884338,31.668129 409.7724609,31.7055664 410.0458984,31.7055664 C410.4690857,31.7055664 410.7945862,31.6380234 411.0224609,31.5029297 C411.2503357,31.367836 411.3642578,31.1619492 411.3642578,30.8852539 C411.3642578,30.676918 411.2739258,30.4986954 411.0932617,30.3505859 C410.9125977,30.2024765 410.5602112,30.027504 410.0361328,29.8256836 C409.5380859,29.6401367 409.184082,29.4781876 408.9741211,29.3398438 C408.7641602,29.2014999 408.6079102,29.0444336 408.5053711,28.8686523 C408.402832,28.6928711 408.3515625,28.4829102 408.3515625,28.2387695 C408.3515625,27.8025665 408.5289612,27.4583359 408.8837891,27.2060547 C409.2386169,26.9537735 409.7252502,26.8276367 410.34375,26.8276367 C410.9199219,26.8276367 411.4830627,26.9448242 412.0332031,27.1791992 L411.7451172,27.8383789 C411.2080078,27.6170273 410.721344,27.5063477 410.2851563,27.5063477 C409.9010315,27.5063477 409.6113281,27.5665665 409.4160156,27.6870117 C409.2207031,27.807457 409.1230469,27.9734726 409.1230469,28.1850586 C409.1230469,28.3282852 409.159668,28.4503555 409.2329102,28.5512695 C409.3061523,28.6521835 409.4241638,28.7482071 409.5869141,28.8393555 C409.7496643,28.9305038 410.0621643,29.0623398 410.5244141,29.2348633 C411.1591797,29.4659805 411.5880432,29.6987305 411.8110352,29.9331055 C412.0340271,30.1674805 412.1455078,30.4620743 412.1455078,30.8168945 Z M417.5039063,32.2768555 L416.6933594,32.2768555 L416.6933594,26.925293 L417.5039063,26.925293 Z M416.625,25.4750977 C416.625,25.2895508 416.6705627,25.1536484 416.7617188,25.0673828 C416.8528748,24.9811172 416.9667969,24.9379883 417.1035156,24.9379883 C417.2337341,24.9379883 417.3460388,24.9819336 417.4404297,25.0698242 C417.5348206,25.1577148 417.5820313,25.2928085 417.5820313,25.4750977 C417.5820313,25.6573868 417.5348206,25.7932968 417.4404297,25.8828125 C417.3460388,25.9723282 417.2337341,26.0170898 417.1035156,26.0170898 C416.9667969,26.0170898 416.8528748,25.9723282 416.7617188,25.8828125 C416.6705627,25.7932968 416.625,25.6573868 416.625,25.4750977 Z M423.3554688,32.2768555 L423.3554688,28.8149414 C423.3554688,28.3787384 423.2561951,28.0532227 423.0576172,27.8383789 C422.8590393,27.6235352 422.5481873,27.5161133 422.125,27.5161133 C421.565094,27.5161133 421.1549377,27.6674805 420.8945313,27.9702148 C420.6341248,28.2729492 420.5039063,28.7726212 420.5039063,29.4692383 L420.5039063,32.2768555 L419.6933594,32.2768555 L419.6933594,26.925293 L420.3525391,26.925293 L420.484375,27.6577148 L420.5234375,27.6577148 C420.6894531,27.394043 420.9222107,27.1897812 421.2216797,27.0449219 C421.5211487,26.9000626 421.8548279,26.8276367 422.2226563,26.8276367 C422.8671875,26.8276367 423.3522034,26.9830704 423.6777344,27.2939453 C424.0032654,27.6048203 424.1660156,28.1020508 424.1660156,28.7856445 L424.1660156,32.2768555 Z M428.1054688,27.5551758 L426.7431641,27.5551758 L426.7431641,32.2768555 L425.9326172,32.2768555 L425.9326172,27.5551758 L424.9755859,27.5551758 L424.9755859,27.1889648 L425.9326172,26.8959961 L425.9326172,26.5981445 C425.9326172,25.2830353 426.5071411,24.6254883 427.65625,24.6254883 C427.9394531,24.6254883 428.2714844,24.682457 428.6523438,24.7963867 L428.4423828,25.4458008 C428.1298828,25.3448868 427.8629456,25.2944336 427.6416016,25.2944336 C427.3356018,25.2944336 427.109375,25.3961563 426.9628906,25.5996094 C426.8164063,25.8030624 426.7431641,26.1293945 426.7431641,26.5786133 L426.7431641,26.925293 L428.1054688,26.925293 Z M433.3125,29.5961914 C433.3125,30.4685898 433.0927734,31.1497345 432.6533203,31.6396484 C432.2138672,32.1295624 431.606781,32.3745117 430.8320313,32.3745117 C430.3535156,32.3745117 429.9287109,32.262207 429.5576172,32.0375977 C429.1865234,31.8129883 428.9000549,31.4907227 428.6982422,31.0708008 C428.4964294,30.6508789 428.3955078,30.1593475 428.3955078,29.5961914 C428.3955078,28.723793 428.6136169,28.0442734 429.0498047,27.5576172 C429.4859924,27.070961 430.0914612,26.8276367 430.8662109,26.8276367 C431.6148987,26.8276367 432.2098083,27.0766602 432.6508789,27.574707 C433.0919495,28.0727539 433.3125,28.7465744 433.3125,29.5961914 Z M429.2353516,29.5961914 C429.2353516,30.2797852 429.3720703,30.8006134 429.6455078,31.1586914 C429.9189453,31.5167694 430.3209534,31.6958008 430.8515625,31.6958008 C431.3821716,31.6958008 431.7850037,31.5175781 432.0600586,31.1611328 C432.3351135,30.8046875 432.4726563,30.2830429 432.4726563,29.5961914 C432.4726563,28.9158478 432.3351135,28.3990936 432.0600586,28.0458984 C431.7850037,27.6927032 431.3789063,27.5161133 430.8417969,27.5161133 C430.3111877,27.5161133 429.9107971,27.6902618 429.640625,28.0385742 C429.3704529,28.3868866 429.2353516,28.9060822 429.2353516,29.5961914 Z M437.1347656,26.8276367 C437.372406,26.8276367 437.5856018,26.847168 437.7744141,26.8862305 L437.6621094,27.6381836 C437.4407654,27.5893555 437.2454529,27.5649414 437.0761719,27.5649414 C436.643219,27.5649414 436.2729492,27.7407227 435.965332,28.0922852 C435.6577148,28.4438477 435.5039063,28.8816681 435.5039063,29.4057617 L435.5039063,32.2768555 L434.6933594,32.2768555 L434.6933594,26.925293 L435.3623047,26.925293 L435.4550781,27.9165039 L435.4941406,27.9165039 C435.6927185,27.5681915 435.9319763,27.2996445 436.2119141,27.1108398 C436.4918518,26.9220352 436.799469,26.8276367 437.1347656,26.8276367 Z M445.5146484,32.2768555 L445.5146484,28.7954102 C445.5146484,28.3689728 445.4234924,28.0491562 445.2412109,27.8359375 C445.0589294,27.6227188 444.7757263,27.5161133 444.3916016,27.5161133 C443.8870544,27.5161133 443.5143127,27.660965 443.2734375,27.9506836 C443.0325623,28.2404022 442.9121094,28.6863556 442.9121094,29.2885742 L442.9121094,32.2768555 L442.1015625,32.2768555 L442.1015625,28.7954102 C442.1015625,28.3689728 442.0104065,28.0491562 441.828125,27.8359375 C441.6458435,27.6227188 441.3609924,27.5161133 440.9736328,27.5161133 C440.4658203,27.5161133 440.0939026,27.6682892 439.8579102,27.9726563 C439.6219177,28.2770233 439.5039063,28.7758789 439.5039063,29.4692383 L439.5039063,32.2768555 L438.6933594,32.2768555 L438.6933594,26.925293 L439.3525391,26.925293 L439.484375,27.6577148 L439.5234375,27.6577148 C439.6764221,27.3972931 439.8920898,27.1938477 440.1704102,27.0473633 C440.4487305,26.9008789 440.7604065,26.8276367 441.1054688,26.8276367 C441.9420471,26.8276367 442.4889221,27.1303711 442.7460938,27.7358398 L442.7851563,27.7358398 C442.9446716,27.4558868 443.1757813,27.2345352 443.4785156,27.0717773 C443.78125,26.9090195 444.1263123,26.8276367 444.5136719,26.8276367 C445.1191406,26.8276367 445.5724182,26.9830704 445.8735352,27.2939453 C446.1746521,27.6048203 446.3251953,28.1020508 446.3251953,28.7856445 L446.3251953,32.2768555 Z M450.984375,32.2768555 L450.8232422,31.5151367 L450.7841797,31.5151367 C450.5172424,31.8504257 450.2511292,32.0774765 449.9858398,32.1962891 C449.7205505,32.3151016 449.3893127,32.3745117 448.9921875,32.3745117 C448.4615784,32.3745117 448.0457458,32.237793 447.7446289,31.9643555 C447.443512,31.690918 447.2929688,31.3019257 447.2929688,30.7973633 C447.2929688,29.716629 448.1572266,29.1502304 449.8857422,29.0981445 L450.7939453,29.0688477 L450.7939453,28.7368164 C450.7939453,28.3168945 450.7036133,28.0068359 450.5229492,27.8066406 C450.3422852,27.6064453 450.0533752,27.5063477 449.65625,27.5063477 C449.2102966,27.5063477 448.705719,27.6430664 448.1425781,27.9165039 L447.8935547,27.2963867 C448.1572266,27.1531601 448.4461365,27.0408554 448.7602539,26.9594727 C449.0743713,26.8780899 449.3893127,26.8374023 449.7050781,26.8374023 C450.3431091,26.8374023 450.815918,26.9790039 451.1235352,27.262207 C451.4311523,27.5454102 451.5849609,27.9995117 451.5849609,28.6245117 L451.5849609,32.2768555 Z M449.1533203,31.7055664 C449.6578674,31.7055664 450.0541992,31.5672226 450.3422852,31.2905273 C450.6303711,31.0138321 450.7744141,30.6264648 450.7744141,30.128418 L450.7744141,29.6450195 L449.9638672,29.6791992 C449.3193359,29.7019882 448.8546448,29.8020859 448.5698242,29.9794922 C448.2850037,30.1568985 448.1425781,30.4327774 448.1425781,30.8071289 C448.1425781,31.1000977 448.2312927,31.323082 448.4086914,31.4760742 C448.5860901,31.6290665 448.8343201,31.7055664 449.1533203,31.7055664 Z M455.421875,31.7055664 C455.565094,31.7055664 455.7034607,31.6949844 455.8369141,31.6738281 C455.9703674,31.6526718 456.0761719,31.6306992 456.1542969,31.6079102 L456.1542969,32.2280273 C456.0664063,32.2703476 455.9370117,32.305336 455.7661133,32.3330078 C455.5952148,32.3606796 455.4414063,32.3745117 455.3046875,32.3745117 C454.2695313,32.3745117 453.7519531,31.8292694 453.7519531,30.7387695 L453.7519531,27.5551758 L452.9853516,27.5551758 L452.9853516,27.1645508 L453.7519531,26.8276367 L454.09375,25.6850586 L454.5625,25.6850586 L454.5625,26.925293 L456.1152344,26.925293 L456.1152344,27.5551758 L454.5625,27.5551758 L454.5625,30.7045898 C454.5625,31.0268555 454.6390076,31.2742538 454.7919922,31.4467773 C454.9449768,31.6193008 455.1549377,31.7055664 455.421875,31.7055664 Z M458.5039063,32.2768555 L457.6933594,32.2768555 L457.6933594,26.925293 L458.5039063,26.925293 Z M457.625,25.4750977 C457.625,25.2895508 457.6705627,25.1536484 457.7617188,25.0673828 C457.8528748,24.9811172 457.9667969,24.9379883 458.1035156,24.9379883 C458.2337341,24.9379883 458.3460388,24.9819336 458.4404297,25.0698242 C458.5348206,25.1577148 458.5820313,25.2928085 458.5820313,25.4750977 C458.5820313,25.6573868 458.5348206,25.7932968 458.4404297,25.8828125 C458.3460388,25.9723282 458.2337341,26.0170898 458.1035156,26.0170898 C457.9667969,26.0170898 457.8528748,25.9723282 457.7617188,25.8828125 C457.6705627,25.7932968 457.625,25.6573868 457.625,25.4750977 Z M465.3125,29.5961914 C465.3125,30.4685898 465.0927734,31.1497345 464.6533203,31.6396484 C464.2138672,32.1295624 463.606781,32.3745117 462.8320313,32.3745117 C462.3535156,32.3745117 461.9287109,32.262207 461.5576172,32.0375977 C461.1865234,31.8129883 460.9000549,31.4907227 460.6982422,31.0708008 C460.4964294,30.6508789 460.3955078,30.1593475 460.3955078,29.5961914 C460.3955078,28.723793 460.6136169,28.0442734 461.0498047,27.5576172 C461.4859924,27.070961 462.0914612,26.8276367 462.8662109,26.8276367 C463.6148987,26.8276367 464.2098083,27.0766602 464.6508789,27.574707 C465.0919495,28.0727539 465.3125,28.7465744 465.3125,29.5961914 Z M461.2353516,29.5961914 C461.2353516,30.2797852 461.3720703,30.8006134 461.6455078,31.1586914 C461.9189453,31.5167694 462.3209534,31.6958008 462.8515625,31.6958008 C463.3821716,31.6958008 463.7850037,31.5175781 464.0600586,31.1611328 C464.3351135,30.8046875 464.4726563,30.2830429 464.4726563,29.5961914 C464.4726563,28.9158478 464.3351135,28.3990936 464.0600586,28.0458984 C463.7850037,27.6927032 463.3789063,27.5161133 462.8417969,27.5161133 C462.3111877,27.5161133 461.9107971,27.6902618 461.640625,28.0385742 C461.3704529,28.3868866 461.2353516,28.9060822 461.2353516,29.5961914 Z M470.3554688,32.2768555 L470.3554688,28.8149414 C470.3554688,28.3787384 470.2561951,28.0532227 470.0576172,27.8383789 C469.8590393,27.6235352 469.5481873,27.5161133 469.125,27.5161133 C468.565094,27.5161133 468.1549377,27.6674805 467.8945313,27.9702148 C467.6341248,28.2729492 467.5039063,28.7726212 467.5039063,29.4692383 L467.5039063,32.2768555 L466.6933594,32.2768555 L466.6933594,26.925293 L467.3525391,26.925293 L467.484375,27.6577148 L467.5234375,27.6577148 C467.6894531,27.394043 467.9222107,27.1897812 468.2216797,27.0449219 C468.5211487,26.9000626 468.8548279,26.8276367 469.2226563,26.8276367 C469.8671875,26.8276367 470.3522034,26.9830704 470.6777344,27.2939453 C471.0032654,27.6048203 471.1660156,28.1020508 471.1660156,28.7856445 L471.1660156,32.2768555 Z M471.9716797,32.2768555" style="fill:rgb(0,0,0);stroke:none" clip-path="url(#clip15)" />
<clipPath id="clip16"><path d="M294,128 L493,128 L493,187 L294,187 Z M300,149 C297.2385864,149 295,151.2385712 295,154 L295,180 C295,182.7614288 297.2385864,185 300,185 L403,185 C405.7614136,185 408,182.7614288 408,180 L408,154 C408,151.2385712 405.7614136,149 403,149 Z M300,149" /></clipPath>
<path d="M421,167 C423.222229,157.6666718 426.5555725,153 431,153" style="fill:none;stroke:rgb(85,142,213)" clip-path="url(#clip16)" />
<clipPath id="clip17"><path d="M294,128 L493,128 L493,187 L294,187 Z M300,149 C297.2385864,149 295,151.2385712 295,154 L295,180 C295,182.7614288 297.2385864,185 300,185 L403,185 C405.7614136,185 408,182.7614288 408,180 L408,154 C408,151.2385712 405.7614136,149 403,149 Z M300,149" /></clipPath>
<path d="M421,167 C423.222229,176.3333435 426.5555725,181 431,181" style="fill:none;stroke:rgb(85,142,213)" clip-path="url(#clip17)" />
<clipPath id="clip18"><path d="M293,127 L494,127 L494,188 L293,188 L293,127 Z" /></clipPath>
<path d="M408,167 L421,167" style="fill:none;stroke:rgb(85,142,213)" clip-path="url(#clip18)" />
<clipPath id="clip19"><path d="M293,147 L411,147 L411,188 L293,188 L293,147 Z" /></clipPath>
<path d="M300,149 C297.2385864,149 295,151.2385712 295,154 L295,180 C295,182.7614288 297.2385864,185 300,185 L403,185 C405.7614136,185 408,182.7614288 408,180 L408,154 C408,151.2385712 405.7614136,149 403,149 Z M300,149" style="fill:rgb(220,230,242);stroke:none" clip-path="url(#clip19)" />
<clipPath id="clip20"><path d="M293,147 L411,147 L411,188 L293,188 L293,147 Z" /></clipPath>
<path d="M300,149 C297.2385864,149 295,151.2385712 295,154 L295,180 C295,182.7614288 297.2385864,185 300,185 L403,185 C405.7614136,185 408,182.7614288 408,180 L408,154 C408,151.2385712 405.7614136,149 403,149 Z M300,149" style="fill:none;stroke:rgb(85,142,213);stroke-width:2" clip-path="url(#clip20)" />
<clipPath id="clip21"><path d="M307,156 L397,156 L397,179 L307,179 L307,156 Z" /></clipPath>
<path d="M320.8256836,172.4099121 L319.5942383,172.4099121 L314.5224609,164.6213379 L314.4716797,164.6213379 C314.5393677,165.5354004 314.5732422,166.373291 314.5732422,167.1350098 L314.5732422,172.4099121 L313.5766602,172.4099121 L313.5766602,163.1296387 L314.7954102,163.1296387 L319.8544922,170.8864746 L319.9052734,170.8864746 C319.8967896,170.7722168 319.8777466,170.4051208 319.8481445,169.7851563 C319.8185425,169.1651917 319.8079224,168.7219238 319.8164063,168.4553223 L319.8164063,163.1296387 L320.8256836,163.1296387 Z M329.4228516,168.9250488 C329.4228516,170.0591736 329.137207,170.9446564 328.565918,171.581543 C327.9946289,172.2184296 327.2054138,172.5368652 326.1982422,172.5368652 C325.5761719,172.5368652 325.0239258,172.3908691 324.5415039,172.098877 C324.059082,171.8068848 323.6867065,171.3879395 323.4243164,170.842041 C323.1619263,170.2961426 323.0307617,169.6571503 323.0307617,168.9250488 C323.0307617,167.7909241 323.31427,166.9075623 323.8813477,166.2749023 C324.4484253,165.6422424 325.2355042,165.3259277 326.2426758,165.3259277 C327.2160034,165.3259277 327.9893188,165.6496582 328.5627441,166.2971191 C329.1361694,166.9445801 329.4228516,167.8205566 329.4228516,168.9250488 Z M324.1225586,168.9250488 C324.1225586,169.8137207 324.300293,170.490799 324.6557617,170.9562988 C325.0112305,171.4217987 325.533844,171.654541 326.2236328,171.654541 C326.9134216,171.654541 327.4370728,171.4228516 327.7946777,170.9594727 C328.1522827,170.4960938 328.3310547,169.8179626 328.3310547,168.9250488 C328.3310547,168.0406036 328.1522827,167.3688202 327.7946777,166.909668 C327.4370728,166.4505157 326.9091797,166.2209473 326.2109375,166.2209473 C325.5211487,166.2209473 325.0006714,166.4473419 324.6494141,166.9001465 C324.2981567,167.352951 324.1225586,168.0279083 324.1225586,168.9250488 Z M333.6650391,171.6672363 C333.8512573,171.6672363 334.0310669,171.6534729 334.2045898,171.6259766 C334.3781128,171.5984802 334.515625,171.5699158 334.6171875,171.5402832 L334.6171875,172.3464355 C334.5029297,172.4014587 334.3347168,172.4469299 334.1125488,172.4829102 C333.8903809,172.5188904 333.6904297,172.5368652 333.5126953,172.5368652 C332.1669922,172.5368652 331.4941406,171.8280487 331.4941406,170.4104004 L331.4941406,166.2717285 L330.4975586,166.2717285 L330.4975586,165.763916 L331.4941406,165.3259277 L331.9384766,163.8405762 L332.5478516,163.8405762 L332.5478516,165.4528809 L334.5664063,165.4528809 L334.5664063,166.2717285 L332.5478516,166.2717285 L332.5478516,170.3659668 C332.5478516,170.7849121 332.6472778,171.1065369 332.8461914,171.3308105 C333.045105,171.5550842 333.3180542,171.6672363 333.6650391,171.6672363 Z M337.4716797,172.4099121 L336.4179688,172.4099121 L336.4179688,165.4528809 L337.4716797,165.4528809 Z M336.3291016,163.567627 C336.3291016,163.326416 336.3883667,163.1497498 336.5068359,163.0375977 C336.6253052,162.9254456 336.7734375,162.8693848 336.9511719,162.8693848 C337.1204224,162.8693848 337.2664185,162.9265137 337.3891602,163.0407715 C337.5119019,163.1550293 337.5732422,163.330658 337.5732422,163.567627 C337.5732422,163.8045959 337.5119019,163.9812927 337.3891602,164.0976563 C337.2664185,164.2140198 337.1204224,164.2722168 336.9511719,164.2722168 C336.7734375,164.2722168 336.6253052,164.2140198 336.5068359,164.0976563 C336.3883667,163.9812927 336.3291016,163.8045959 336.3291016,163.567627 Z M342.5537109,166.2717285 L340.7827148,166.2717285 L340.7827148,172.4099121 L339.7290039,172.4099121 L339.7290039,166.2717285 L338.4848633,166.2717285 L338.4848633,165.7956543 L339.7290039,165.4147949 L339.7290039,165.0275879 C339.7290039,163.3179474 340.4758911,162.4631348 341.9697266,162.4631348 C342.3378906,162.4631348 342.7695313,162.5372009 343.2646484,162.6853027 L342.9916992,163.529541 C342.5854492,163.3983459 342.2384644,163.3327637 341.9506836,163.3327637 C341.5529175,163.3327637 341.2587891,163.4649963 341.0683594,163.7294922 C340.8779297,163.993988 340.7827148,164.4182129 340.7827148,165.0021973 L340.7827148,165.4528809 L342.5537109,165.4528809 Z M344.8769531,172.4099121 L343.8232422,172.4099121 L343.8232422,165.4528809 L344.8769531,165.4528809 Z M343.734375,163.567627 C343.734375,163.326416 343.7936401,163.1497498 343.9121094,163.0375977 C344.0305786,162.9254456 344.1787109,162.8693848 344.3564453,162.8693848 C344.5256958,162.8693848 344.6716919,162.9265137 344.7944336,163.0407715 C344.9171753,163.1550293 344.9785156,163.330658 344.9785156,163.567627 C344.9785156,163.8045959 344.9171753,163.9812927 344.7944336,164.0976563 C344.6716919,164.2140198 344.5256958,164.2722168 344.3564453,164.2722168 C344.1787109,164.2722168 344.0305786,164.2140198 343.9121094,164.0976563 C343.7936401,163.9812927 343.734375,163.8045959 343.734375,163.567627 Z M348.4589844,168.848877 C348.6409302,168.5907288 348.9181519,168.2521973 349.2905273,167.833252 L351.5375977,165.4528809 L352.7880859,165.4528809 L349.9697266,168.4172363 L352.9848633,172.4099121 L351.7089844,172.4099121 L349.2524414,169.1218262 L348.4589844,169.807373 L348.4589844,172.4099121 L347.4179688,172.4099121 L347.4179688,162.532959 L348.4589844,162.532959 L348.4589844,167.7697754 C348.4589844,168.002533 348.4420776,168.3622131 348.4082031,168.848877 Z M351.6962891,172.4099121 L351.4868164,171.4196777 L351.4360352,171.4196777 C351.0890503,171.8555603 350.743103,172.1507263 350.3981934,172.3051758 C350.0532837,172.4596252 349.6227417,172.5368652 349.1064453,172.5368652 C348.4166565,172.5368652 347.8760376,172.3591309 347.4846191,172.0036621 C347.0932007,171.6481934 346.8974609,171.1425018 346.8974609,170.4865723 C346.8974609,169.0816193 348.0209961,168.3453064 350.2680664,168.2775879 L351.4487305,168.239502 L351.4487305,167.8078613 C351.4487305,167.2619629 351.3312988,166.8588867 351.0964355,166.5986328 C350.8615723,166.3383789 350.4860229,166.208252 349.9697266,166.208252 C349.3899536,166.208252 348.7340698,166.3859863 348.0019531,166.7414551 L347.6782227,165.9353027 C348.0209961,165.749115 348.3965454,165.6031189 348.8049316,165.4973145 C349.2133179,165.39151 349.6227417,165.338623 350.0332031,165.338623 C350.8626404,165.338623 351.4772949,165.5227051 351.8771973,165.8908691 C352.2770996,166.2590332 352.4770508,166.8493652 352.4770508,167.6618652 L352.4770508,172.4099121 Z M349.315918,171.6672363 C349.9718628,171.6672363 350.4870605,171.4873962 350.8615723,171.1276855 C351.236084,170.7679749 351.4233398,170.2644043 351.4233398,169.6169434 L351.4233398,168.9885254 L350.3696289,169.032959 C349.5317383,169.0625916 348.9276733,169.1927185 348.557373,169.4233398 C348.1870728,169.6539612 348.0019531,170.0126038 348.0019531,170.4992676 C348.0019531,170.880127 348.1172485,171.1700134 348.3479004,171.3688965 C348.5785522,171.5677795 348.9011841,171.6672363 349.315918,171.6672363 Z M356.6650391,171.6672363 C356.8512573,171.6672363 357.0310669,171.6534729 357.2045898,171.6259766 C357.3781128,171.5984802 357.515625,171.5699158 357.6171875,171.5402832 L357.6171875,172.3464355 C357.5029297,172.4014587 357.3347168,172.4469299 357.1125488,172.4829102 C356.8903809,172.5188904 356.6904297,172.5368652 356.5126953,172.5368652 C355.1669922,172.5368652 354.4941406,171.8280487 354.4941406,170.4104004 L354.4941406,166.2717285 L353.4975586,166.2717285 L353.4975586,165.763916 L354.4941406,165.3259277 L354.9384766,163.8405762 L355.5478516,163.8405762 L355.5478516,165.4528809 L357.5664063,165.4528809 L357.5664063,166.2717285 L355.5478516,166.2717285 L355.5478516,170.3659668 C355.5478516,170.7849121 355.6472778,171.1065369 355.8461914,171.3308105 C356.045105,171.5550842 356.3180542,171.6672363 356.6650391,171.6672363 Z M362.4716797,172.4099121 L361.4179688,172.4099121 L361.4179688,165.4528809 L362.4716797,165.4528809 Z M361.3291016,163.567627 C361.3291016,163.326416 361.3883667,163.1497498 361.5068359,163.0375977 C361.6253052,162.9254456 361.7734375,162.8693848 361.9511719,162.8693848 C362.1204224,162.8693848 362.2664185,162.9265137 362.3891602,163.0407715 C362.5119019,163.1550293 362.5732422,163.330658 362.5732422,163.567627 C362.5732422,163.8045959 362.5119019,163.9812927 362.3891602,164.0976563 C362.2664185,164.2140198 362.1204224,164.2722168 361.9511719,164.2722168 C361.7734375,164.2722168 361.6253052,164.2140198 361.5068359,164.0976563 C361.3883667,163.9812927 361.3291016,163.8045959 361.3291016,163.567627 Z M372.4228516,168.9250488 C372.4228516,170.0591736 372.137207,170.9446564 371.565918,171.581543 C370.9946289,172.2184296 370.2054138,172.5368652 369.1982422,172.5368652 C368.5761719,172.5368652 368.0239258,172.3908691 367.5415039,172.098877 C367.059082,171.8068848 366.6867065,171.3879395 366.4243164,170.842041 C366.1619263,170.2961426 366.0307617,169.6571503 366.0307617,168.9250488 C366.0307617,167.7909241 366.31427,166.9075623 366.8813477,166.2749023 C367.4484253,165.6422424 368.2355042,165.3259277 369.2426758,165.3259277 C370.2160034,165.3259277 370.9893188,165.6496582 371.5627441,166.2971191 C372.1361694,166.9445801 372.4228516,167.8205566 372.4228516,168.9250488 Z M367.1225586,168.9250488 C367.1225586,169.8137207 367.300293,170.490799 367.6557617,170.9562988 C368.0112305,171.4217987 368.533844,171.654541 369.2236328,171.654541 C369.9134216,171.654541 370.4370728,171.4228516 370.7946777,170.9594727 C371.1522827,170.4960938 371.3310547,169.8179626 371.3310547,168.9250488 C371.3310547,168.0406036 371.1522827,167.3688202 370.7946777,166.909668 C370.4370728,166.4505157 369.9091797,166.2209473 369.2109375,166.2209473 C368.5211487,166.2209473 368.0006714,166.4473419 367.6494141,166.9001465 C367.2981567,167.352951 367.1225586,168.0279083 367.1225586,168.9250488 Z M374.1787109,172.4099121 L374.1787109,167.9094238 C374.1787109,167.3423615 374.0496216,166.9191895 373.7915039,166.6398926 C373.5333862,166.3605957 373.1292419,166.2209473 372.5791016,166.2209473 C371.8512268,166.2209473 371.3180542,166.4177246 370.9794922,166.8112793 C370.6409302,167.204834 370.4716797,167.8544006 370.4716797,168.7600098 L370.4716797,172.4099121 L369.4179688,172.4099121 L369.4179688,165.4528809 L370.2749023,165.4528809 L370.4462891,166.4050293 L370.4970703,166.4050293 C370.7128906,166.0622559 371.0154419,165.7967224 371.4047852,165.6083984 C371.7941284,165.4200745 372.2278442,165.3259277 372.7060547,165.3259277 C373.5439453,165.3259277 374.1744995,165.5279846 374.5976563,165.9321289 C375.020813,166.3362732 375.2324219,166.982666 375.2324219,167.8713379 L375.2324219,172.4099121 Z M380.3569336,172.5368652 C379.3286133,172.5368652 378.5171814,172.2237244 377.9226074,171.5974121 C377.3280334,170.9710999 377.0307617,170.1014862 377.0307617,168.9885254 C377.0307617,167.8670959 377.3068848,166.9763184 377.8591309,166.3161621 C378.411377,165.6560059 379.1529846,165.3259277 380.0839844,165.3259277 C380.9557495,165.3259277 381.6455078,165.6126251 382.1533203,166.1860352 C382.6611328,166.7594452 382.9150391,167.5158691 382.9150391,168.4553223 L382.9150391,169.1218262 L378.1225586,169.1218262 C378.1437378,169.9385681 378.3500366,170.5585022 378.7414551,170.9816895 C379.1328735,171.4048767 379.684082,171.6164551 380.3950195,171.6164551 C381.144043,171.6164551 381.8845825,171.4598846 382.6166992,171.1467285 L382.6166992,172.0861816 C382.2443237,172.2469788 381.8920288,172.3623047 381.5598145,172.4321289 C381.2276001,172.5019531 380.8266602,172.5368652 380.3569336,172.5368652 Z M380.0712891,166.208252 C379.5126953,166.208252 379.0673218,166.390213 378.7351074,166.7541504 C378.4028931,167.1180878 378.2072144,167.6216583 378.1479492,168.2648926 L381.7851563,168.2648926 C381.7851563,167.6004944 381.6370239,167.0916443 381.3408203,166.7382813 C381.0446167,166.3849182 380.6214294,166.208252 380.0712891,166.208252 Z M388.5917969,165.3259277 C388.9006958,165.3259277 389.1779175,165.3513184 389.4233398,165.4020996 L389.2773438,166.3796387 C388.989563,166.3161621 388.7356567,166.2844238 388.515625,166.2844238 C387.9527893,166.2844238 387.4714355,166.5129395 387.0715332,166.9699707 C386.6716309,167.427002 386.4716797,167.99617 386.4716797,168.6774902 L386.4716797,172.4099121 L385.4179688,172.4099121 L385.4179688,165.4528809 L386.2875977,165.4528809 L386.4082031,166.7414551 L386.4589844,166.7414551 C386.7171021,166.2886505 387.0281372,165.9395447 387.3920898,165.6940918 C387.7560425,165.4486389 388.1559448,165.3259277 388.5917969,165.3259277 Z M389.6074219,172.4099121" style="fill:rgb(23,55,94);stroke:none" clip-path="url(#clip21)" />
<clipPath id="clip22"><path d="M409,161 L422,161 L422,174 L409,174 L409,161 Z" /></clipPath>
<path d="M419.5,167 C419.5,164.5147095 417.4852905,162.5 415,162.5 C412.5147095,162.5 410.5,164.5147095 410.5,167 C410.5,169.4852905 412.5147095,171.5 415,171.5 C417.4852905,171.5 419.5,169.4852905 419.5,167 Z M419.5,167" style="fill:rgb(250,250,250);stroke:none" clip-path="url(#clip22)" />
<clipPath id="clip23"><path d="M409,161 L422,161 L422,174 L409,174 L409,161 Z" /></clipPath>
<path d="M419.5,167 C419.5,164.5147095 417.4852905,162.5 415,162.5 C412.5147095,162.5 410.5,164.5147095 410.5,167 C410.5,169.4852905 412.5147095,171.5 415,171.5 C417.4852905,171.5 419.5,169.4852905 419.5,167 Z M419.5,167" style="fill:none;stroke:rgb(85,142,213)" clip-path="url(#clip23)" />
<clipPath id="clip24"><path d="M409,161 L422,161 L422,174 L409,174 L409,161 Z" /></clipPath>
<path d="M413,167 L417,167" style="fill:none;stroke:rgb(150,160,200)" clip-path="url(#clip24)" />
<clipPath id="clip25"><path d="M428,127 L494,127 L494,156 L428,156 L428,127 Z" /></clipPath>
<path d="M431,153 L490,153 Z M431,153" style="fill:none;stroke:rgb(85,142,213);stroke-width:3" clip-path="url(#clip25)" />
<clipPath id="clip26"><path d="M440,132 L482,132 L482,151 L440,151 L440,132 Z" /></clipPath>
<path d="M446.0004883,145.25 L445.1704102,145.25 L445.1704102,138.8486328 L442.909668,138.8486328 L442.909668,138.1113281 L448.2612305,138.1113281 L448.2612305,138.8486328 L446.0004883,138.8486328 Z M450.4916992,145.25 L449.6811523,145.25 L449.6811523,139.8984375 L450.4916992,139.8984375 Z M449.612793,138.4482422 C449.612793,138.2626953 449.6583557,138.1267853 449.7495117,138.0405273 C449.8406677,137.9542694 449.9545898,137.9111328 450.0913086,137.9111328 C450.2215271,137.9111328 450.3338318,137.9550781 450.4282227,138.0429688 C450.5226135,138.1308594 450.5698242,138.2659454 450.5698242,138.4482422 C450.5698242,138.6305389 450.5226135,138.7664337 450.4282227,138.855957 C450.3338318,138.9454803 450.2215271,138.9902344 450.0913086,138.9902344 C449.9545898,138.9902344 449.8406677,138.9454803 449.7495117,138.855957 C449.6583557,138.7664337 449.612793,138.6305389 449.612793,138.4482422 Z M453.4916992,145.25 L452.6811523,145.25 L452.6811523,137.6523438 L453.4916992,137.6523438 Z M462.5024414,145.25 L462.5024414,141.7685547 C462.5024414,141.3421173 462.4112854,141.0223083 462.2290039,140.809082 C462.0467224,140.5958557 461.7635193,140.4892578 461.3793945,140.4892578 C460.8748474,140.4892578 460.5021057,140.6341095 460.2612305,140.9238281 C460.0203552,141.2135468 459.8999023,141.6595001 459.8999023,142.2617188 L459.8999023,145.25 L459.0893555,145.25 L459.0893555,141.7685547 C459.0893555,141.3421173 458.9981995,141.0223083 458.815918,140.809082 C458.6336365,140.5958557 458.3487854,140.4892578 457.9614258,140.4892578 C457.4536133,140.4892578 457.0816956,140.6414337 456.8457031,140.9458008 C456.6097107,141.2501678 456.4916992,141.7490234 456.4916992,142.4423828 L456.4916992,145.25 L455.6811523,145.25 L455.6811523,139.8984375 L456.340332,139.8984375 L456.472168,140.6308594 L456.5112305,140.6308594 C456.6642151,140.3704376 456.8798828,140.1669922 457.1582031,140.0205078 C457.4365234,139.8740234 457.7481995,139.8007813 458.0932617,139.8007813 C458.9298401,139.8007813 459.4767151,140.1035156 459.7338867,140.7089844 L459.7729492,140.7089844 C459.9324646,140.4290314 460.1635742,140.2076874 460.4663086,140.0449219 C460.769043,139.8821564 461.1141052,139.8007813 461.5014648,139.8007813 C462.1069336,139.8007813 462.5602112,139.9562073 462.8613281,140.2670898 C463.1624451,140.5779724 463.3129883,141.0751953 463.3129883,141.7587891 L463.3129883,145.25 Z M466.9418945,145.3476563 C466.1508789,145.3476563 465.5267029,145.106781 465.0693359,144.625 C464.611969,144.143219 464.3833008,143.4742889 464.3833008,142.6181641 C464.3833008,141.7555237 464.5957031,141.0703125 465.0205078,140.5625 C465.4453125,140.0546875 466.0157776,139.8007813 466.7319336,139.8007813 C467.4024963,139.8007813 467.9331055,140.0213165 468.3237305,140.4624023 C468.7143555,140.9034882 468.909668,141.4853516 468.909668,142.2080078 L468.909668,142.7207031 L465.2231445,142.7207031 C465.2394104,143.3489685 465.3981018,143.8258362 465.6992188,144.1513672 C466.0003357,144.4768982 466.4243164,144.6396484 466.9711914,144.6396484 C467.5473633,144.6396484 468.1170349,144.5192108 468.6801758,144.2783203 L468.6801758,145.0009766 C468.3937073,145.1246796 468.1227112,145.2133789 467.8671875,145.2670898 C467.6116638,145.3208008 467.3032227,145.3476563 466.9418945,145.3476563 Z M466.722168,140.4794922 C466.2924805,140.4794922 465.9498596,140.6194611 465.6943359,140.8994141 C465.4388123,141.1793671 465.2882385,141.5667267 465.2426758,142.0615234 L468.0405273,142.0615234 C468.0405273,141.5504456 467.9266052,141.1590271 467.6987305,140.887207 C467.4708557,140.615387 467.1453552,140.4794922 466.722168,140.4794922 Z M471.4916992,145.25 L470.6811523,145.25 L470.6811523,137.6523438 L471.4916992,137.6523438 Z M477.3237305,144.5322266 L477.2797852,144.5322266 C476.905426,145.0758514 476.3455505,145.3476563 475.6000977,145.3476563 C474.900238,145.3476563 474.3558044,145.1083984 473.9667969,144.6298828 C473.5777893,144.1513672 473.3833008,143.4710388 473.3833008,142.5888672 C473.3833008,141.7066956 473.5786133,141.0214844 473.9692383,140.5332031 C474.3598633,140.0449219 474.9034729,139.8007813 475.6000977,139.8007813 C476.3260193,139.8007813 476.8826599,140.0644531 477.2700195,140.5917969 L477.3334961,140.5917969 L477.2993164,140.2060547 L477.2797852,139.8300781 L477.2797852,137.6523438 L478.090332,137.6523438 L478.090332,145.25 L477.4311523,145.25 Z M475.7026367,144.6689453 C476.256012,144.6689453 476.6572266,144.5184021 476.90625,144.2172852 C477.1552734,143.9161682 477.2797852,143.4303436 477.2797852,142.7597656 L477.2797852,142.5888672 C477.2797852,141.8303986 477.153656,141.2892303 476.9013672,140.965332 C476.6490784,140.6414337 476.2462463,140.4794922 475.6928711,140.4794922 C475.2176208,140.4794922 474.8538513,140.6642151 474.6015625,141.0336914 C474.3492737,141.4031677 474.2231445,141.9248047 474.2231445,142.5986328 C474.2231445,143.2822266 474.3484802,143.798172 474.5991211,144.1464844 C474.849762,144.4947968 475.2176208,144.6689453 475.7026367,144.6689453 Z M478.949707,145.25" style="fill:rgb(0,0,0);stroke:none" clip-path="url(#clip26)" />
<clipPath id="clip27"><path d="M428,155 L491,155 L491,184 L428,184 L428,155 Z" /></clipPath>
<path d="M431,181 L487,181 Z M431,181" style="fill:none;stroke:rgb(85,142,213);stroke-width:3" clip-path="url(#clip27)" />
<clipPath id="clip28"><path d="M440,160 L479,160 L479,179 L440,179 L440,160 Z" /></clipPath>
<path d="M448.3344727,173.2768555 L447.4458008,171.0063477 L444.5844727,171.0063477 L443.7055664,173.2768555 L442.8657227,173.2768555 L445.6879883,166.1088867 L446.3862305,166.1088867 L449.1938477,173.2768555 Z M447.1870117,170.2592773 L446.3569336,168.0473633 C446.2495117,167.7674103 446.1388245,167.423996 446.0249023,167.0170898 C445.9532776,167.3295898 445.8507385,167.6730042 445.7172852,168.0473633 L444.8774414,170.2592773 Z M452.137207,168.5551758 L450.7749023,168.5551758 L450.7749023,173.2768555 L449.9643555,173.2768555 L449.9643555,168.5551758 L449.0073242,168.5551758 L449.0073242,168.1889648 L449.9643555,167.8959961 L449.9643555,167.5981445 C449.9643555,166.2830353 450.5388794,165.6254883 451.6879883,165.6254883 C451.9711914,165.6254883 452.3032227,165.6824646 452.684082,165.7963867 L452.4741211,166.4458008 C452.1616211,166.3448792 451.8946838,166.2944336 451.6733398,166.2944336 C451.3673401,166.2944336 451.1411133,166.3961487 450.9946289,166.5996094 C450.8481445,166.8030701 450.7749023,167.1293945 450.7749023,167.5786133 L450.7749023,167.925293 L452.137207,167.925293 Z M459.5463867,173.2768555 L459.5463867,169.7954102 C459.5463867,169.3689728 459.4552307,169.0491638 459.2729492,168.8359375 C459.0906677,168.6227112 458.8074646,168.5161133 458.4233398,168.5161133 C457.9187927,168.5161133 457.546051,168.660965 457.3051758,168.9506836 C457.0643005,169.2404022 456.9438477,169.6863556 456.9438477,170.2885742 L456.9438477,173.2768555 L456.1333008,173.2768555 L456.1333008,169.7954102 C456.1333008,169.3689728 456.0421448,169.0491638 455.8598633,168.8359375 C455.6775818,168.6227112 455.3927307,168.5161133 455.0053711,168.5161133 C454.4975586,168.5161133 454.1256409,168.6682892 453.8896484,168.9726563 C453.653656,169.2770233 453.5356445,169.7758789 453.5356445,170.4692383 L453.5356445,173.2768555 L452.7250977,173.2768555 L452.7250977,167.925293 L453.3842773,167.925293 L453.5161133,168.6577148 L453.5551758,168.6577148 C453.7081604,168.3972931 453.9238281,168.1938477 454.2021484,168.0473633 C454.4804688,167.9008789 454.7921448,167.8276367 455.137207,167.8276367 C455.9737854,167.8276367 456.5206604,168.1303711 456.777832,168.7358398 L456.8168945,168.7358398 C456.9764099,168.4558868 457.2075195,168.2345276 457.5102539,168.0717773 C457.8129883,167.9090271 458.1580505,167.8276367 458.5454102,167.8276367 C459.1508789,167.8276367 459.6041565,167.9830627 459.9052734,168.2939453 C460.2063904,168.6048279 460.3569336,169.1020508 460.3569336,169.7856445 L460.3569336,173.2768555 Z M463.9858398,173.3745117 C463.1948242,173.3745117 462.5706482,173.1336365 462.1132813,172.6518555 C461.6559143,172.1700745 461.4272461,171.5011444 461.4272461,170.6450195 C461.4272461,169.7823792 461.6396484,169.097168 462.0644531,168.5893555 C462.4892578,168.081543 463.0597229,167.8276367 463.7758789,167.8276367 C464.4464417,167.8276367 464.9770508,168.048172 465.3676758,168.4892578 C465.7583008,168.9303436 465.9536133,169.512207 465.9536133,170.2348633 L465.9536133,170.7475586 L462.2670898,170.7475586 C462.2833557,171.375824 462.4420471,171.8526917 462.7431641,172.1782227 C463.044281,172.5037537 463.4682617,172.6665039 464.0151367,172.6665039 C464.5913086,172.6665039 465.1609802,172.546051 465.7241211,172.3051758 L465.7241211,173.027832 C465.4376526,173.1515198 465.1666565,173.2402344 464.9111328,173.2939453 C464.6556091,173.3476563 464.347168,173.3745117 463.9858398,173.3745117 Z M463.7661133,168.5063477 C463.3364258,168.5063477 462.9938049,168.6463165 462.7382813,168.9262695 C462.4827576,169.2062225 462.3321838,169.5935822 462.2866211,170.0883789 L465.0844727,170.0883789 C465.0844727,169.577301 464.9705505,169.1858826 464.7426758,168.9140625 C464.514801,168.6422424 464.1893005,168.5063477 463.7661133,168.5063477 Z M468.5356445,173.2768555 L467.7250977,173.2768555 L467.7250977,165.6791992 L468.5356445,165.6791992 Z M474.3676758,172.559082 L474.3237305,172.559082 C473.9493713,173.1027069 473.3894958,173.3745117 472.644043,173.3745117 C471.9441833,173.3745117 471.3997498,173.1352539 471.0107422,172.6567383 C470.6217346,172.1782227 470.4272461,171.4978943 470.4272461,170.6157227 C470.4272461,169.733551 470.6225586,169.0483398 471.0131836,168.5600586 C471.4038086,168.0717773 471.9474182,167.8276367 472.644043,167.8276367 C473.3699646,167.8276367 473.9266052,168.0913086 474.3139648,168.6186523 L474.3774414,168.6186523 L474.3432617,168.2329102 L474.3237305,167.8569336 L474.3237305,165.6791992 L475.1342773,165.6791992 L475.1342773,173.2768555 L474.4750977,173.2768555 Z M472.746582,172.6958008 C473.2999573,172.6958008 473.7011719,172.5452576 473.9501953,172.2441406 C474.1992188,171.9430237 474.3237305,171.4571991 474.3237305,170.7866211 L474.3237305,170.6157227 C474.3237305,169.857254 474.1976013,169.3160858 473.9453125,168.9921875 C473.6930237,168.6682892 473.2901917,168.5063477 472.7368164,168.5063477 C472.2615662,168.5063477 471.8977966,168.6910706 471.6455078,169.0605469 C471.393219,169.4300232 471.2670898,169.9516602 471.2670898,170.6254883 C471.2670898,171.309082 471.3924255,171.8250275 471.6430664,172.1733398 C471.8937073,172.5216522 472.2615662,172.6958008 472.746582,172.6958008 Z M475.9936523,173.2768555" style="fill:rgb(0,0,0);stroke:none" clip-path="url(#clip28)" />
</svg>
